HIERARCHY
ROOT Hips
{
  OFFSET 5.80788e-005 67.184 3.4734
  CHANNELS 6 Xposition Yposition Zposition Zrotation Xrotation Yrotation
  JOINT Chest
  {
    OFFSET 0 8.7983 -4.7612
    CHANNELS 3 Zrotation Xrotation Yrotation
    JOINT Chest2
    {
      OFFSET 0 8.0291 0.4195
      CHANNELS 3 Zrotation Xrotation Yrotation
      JOINT Chest3
      {
        OFFSET 0 9.9351 -2.2114
        CHANNELS 3 Zrotation Xrotation Yrotation
        JOINT Neck
        {
          OFFSET 0 22.3885 -0.4656
          CHANNELS 3 Zrotation Xrotation Yrotation
          JOINT Head
          {
            OFFSET -0.0001 12.643 3.4389
            CHANNELS 3 Zrotation Xrotation Yrotation
            End Site
            {
              OFFSET 0.0001 17.6655 0.5274
            }
          }
        }
        JOINT LeftCollar
        {
          OFFSET 2.2603 21.606 7.4023
          CHANNELS 3 Zrotation Xrotation Yrotation
          JOINT LeftShoulder
          {
            OFFSET 13.5163 -1.1332 -5.0146
            CHANNELS 3 Zrotation Xrotation Yrotation
            JOINT LeftElbow
            {
              OFFSET -0.0995 -28.05 -0.2431
              CHANNELS 3 Zrotation Xrotation Yrotation
              JOINT LeftWrist
              {
                OFFSET 0.0679 -23.3996 -0.1402
                CHANNELS 3 Zrotation Xrotation Yrotation
                JOINT LeftFinger1
                {
                  OFFSET 0.7932 -9.069 2.5189
                  CHANNELS 3 Zrotation Xrotation Yrotation
                  JOINT LeftFinger11
                  {
                    OFFSET -0.8272 -3.3923 0.5977
                    CHANNELS 3 Zrotation Xrotation Yrotation
                    JOINT LeftFinger12
                    {
                      OFFSET -0.5649 -2.3158 0.4082
                      CHANNELS 3 Zrotation Xrotation Yrotation
                      End Site
                      {
                        OFFSET -0.4919 -1.6479 0.2673
                      }
                    }
                  }
                }
                JOINT LeftFinger2
                {
                  OFFSET 0.9159 -9.2044 0.2193
                  CHANNELS 3 Zrotation Xrotation Yrotation
                  JOINT LeftFinger21
                  {
                    OFFSET 0.0117 -4.1944 -0.0248
                    CHANNELS 3 Zrotation Xrotation Yrotation
                    JOINT LeftFinger22
                    {
                      OFFSET 0.0071 -2.3249 -0.0142
                      CHANNELS 3 Zrotation Xrotation Yrotation
                      End Site
                      {
                        OFFSET -0.1475 -2.0882 0.0028
                      }
                    }
                  }
                }
                JOINT LeftFinger3
                {
                  OFFSET 0.6113 -8.7231 -2.0637
                  CHANNELS 3 Zrotation Xrotation Yrotation
                  JOINT LeftFinger31
                  {
                    OFFSET -0.1927 -3.8059 -0.2383
                    CHANNELS 3 Zrotation Xrotation Yrotation
                    JOINT LeftFinger32
                    {
                      OFFSET -0.1091 -2.1688 -0.1362
                      CHANNELS 3 Zrotation Xrotation Yrotation
                      End Site
                      {
                        OFFSET -0.2358 -1.9176 -0.0906
                      }
                    }
                  }
                }
                JOINT LeftFinger4
                {
                  OFFSET -0.6151 -8.0947 -3.5641
                  CHANNELS 3 Zrotation Xrotation Yrotation
                  JOINT LeftFinger41
                  {
                    OFFSET -0.4882 -2.341 -0.6462
                    CHANNELS 3 Zrotation Xrotation Yrotation
                    JOINT LeftFinger42
                    {
                      OFFSET -0.3575 -1.7167 -0.4742
                      CHANNELS 3 Zrotation Xrotation Yrotation
                      End Site
                      {
                        OFFSET -0.4187 -1.5237 -0.3496
                      }
                    }
                  }
                }
                JOINT LeftFinger0
                {
                  OFFSET -1.42 -1.8761 1.4223
                  CHANNELS 3 Zrotation Xrotation Yrotation
                  JOINT LeftFinger01
                  {
                    OFFSET -1.1471 -3.4929 2.6334
                    CHANNELS 3 Zrotation Xrotation Yrotation
                    JOINT LeftFinger02
                    {
                      OFFSET -0.823 -2.3 1.6571
                      CHANNELS 3 Zrotation Xrotation Yrotation
                      End Site
                      {
                        OFFSET -0.5822 -1.6914 1.1582
                      }
                    }
                  }
                }
              }
            }
          }
        }
        JOINT RightCollar
        {
          OFFSET -2.2603 21.606 7.4023
          CHANNELS 3 Zrotation Xrotation Yrotation
          JOINT RightShoulder
          {
            OFFSET -13.5187 -1.1334 -5.0155
            CHANNELS 3 Zrotation Xrotation Yrotation
            JOINT RightElbow
            {
              OFFSET 0.0994 -28.0499 -0.2431
              CHANNELS 3 Zrotation Xrotation Yrotation
              JOINT RightWrist
              {
                OFFSET -0.0679 -23.3996 -0.1402
                CHANNELS 3 Zrotation Xrotation Yrotation
                JOINT RightFinger1
                {
                  OFFSET -0.7932 -9.0691 2.5189
                  CHANNELS 3 Zrotation Xrotation Yrotation
                  JOINT RightFinger11
                  {
                    OFFSET 0.8272 -3.3923 0.5977
                    CHANNELS 3 Zrotation Xrotation Yrotation
                    JOINT RightFinger12
                    {
                      OFFSET 0.565 -2.3158 0.4082
                      CHANNELS 3 Zrotation Xrotation Yrotation
                      End Site
                      {
                        OFFSET 0.4919 -1.6479 0.2673
                      }
                    }
                  }
                }
                JOINT RightFinger2
                {
                  OFFSET -0.916 -9.2044 0.2193
                  CHANNELS 3 Zrotation Xrotation Yrotation
                  JOINT RightFinger21
                  {
                    OFFSET -0.0117 -4.1944 -0.0248
                    CHANNELS 3 Zrotation Xrotation Yrotation
                    JOINT RightFinger22
                    {
                      OFFSET -0.0071 -2.3249 -0.0142
                      CHANNELS 3 Zrotation Xrotation Yrotation
                      End Site
                      {
                        OFFSET 0.1475 -2.0882 0.0028
                      }
                    }
                  }
                }
                JOINT RightFinger3
                {
                  OFFSET -0.6113 -8.7231 -2.0637
                  CHANNELS 3 Zrotation Xrotation Yrotation
                  JOINT RightFinger31
                  {
                    OFFSET 0.1927 -3.8059 -0.2383
                    CHANNELS 3 Zrotation Xrotation Yrotation
                    JOINT RightFinger32
                    {
                      OFFSET 0.1091 -2.1688 -0.1362
                      CHANNELS 3 Zrotation Xrotation Yrotation
                      End Site
                      {
                        OFFSET 0.2358 -1.9176 -0.0906
                      }
                    }
                  }
                }
                JOINT RightFinger4
                {
                  OFFSET 0.6151 -8.0947 -3.564
                  CHANNELS 3 Zrotation Xrotation Yrotation
                  JOINT RightFinger41
                  {
                    OFFSET 0.4882 -2.341 -0.6462
                    CHANNELS 3 Zrotation Xrotation Yrotation
                    JOINT RightFinger42
                    {
                      OFFSET 0.3574 -1.7166 -0.4742
                      CHANNELS 3 Zrotation Xrotation Yrotation
                      End Site
                      {
                        OFFSET 0.4187 -1.5237 -0.3496
                      }
                    }
                  }
                }
                JOINT RightFinger0
                {
                  OFFSET 1.4199 -1.8761 1.4221
                  CHANNELS 3 Zrotation Xrotation Yrotation
                  JOINT RightFinger01
                  {
                    OFFSET 1.1472 -3.4929 2.6336
                    CHANNELS 3 Zrotation Xrotation Yrotation
                    JOINT RightFinger02
                    {
                      OFFSET 0.8229 -2.3 1.6571
                      CHANNELS 3 Zrotation Xrotation Yrotation
                      End Site
                      {
                        OFFSET 0.5822 -1.6914 1.1582
                      }
                    }
                  }
                }
              }
            }
          }
        }
      }
    }
  }
  JOINT RightHip
  {
    OFFSET -9.412 3.9771 -0.7758
    CHANNELS 3 Zrotation Xrotation Yrotation
    JOINT RightKnee
    {
      OFFSET -0.7531 -40.938 0
      CHANNELS 3 Zrotation Xrotation Yrotation
      JOINT RightAnkle
      {
        OFFSET 0 -40.1986 0
        CHANNELS 3 Zrotation Xrotation Yrotation
        JOINT RightToe
        {
          OFFSET 0 -4.4182 9.239
          CHANNELS 3 Zrotation Xrotation Yrotation
          End Site
          {
            OFFSET 0 0 6.1981
          }
        }
      }
    }
  }
  JOINT LeftHip
  {
    OFFSET 9.4119 3.9773 -0.7758
    CHANNELS 3 Zrotation Xrotation Yrotation
    JOINT LeftKnee
    {
      OFFSET 0.7532 -40.9383 0
      CHANNELS 3 Zrotation Xrotation Yrotation
      JOINT LeftAnkle
      {
        OFFSET 0 -40.1986 0
        CHANNELS 3 Zrotation Xrotation Yrotation
        JOINT LeftToe
        {
          OFFSET 0 -4.4182 9.239
          CHANNELS 3 Zrotation Xrotation Yrotation
          End Site
          {
            OFFSET 0 0 6.1981
          }
        }
      }
    }
  }
}
MOTION
Frames:	4
Frame Time:	0.0333333
5.80788e-005 67.184 3.4734 0 0 -0 0 0 -0 0 0 -0 0 0 -0 0.0016974 0 -0 1.94126e-019 0 -0 0.0016974 -1.30276e-011 -12.5014 88.1196 14.2451 10.6914 -0.00160742 -0.00239107 0.000739433 -8.41737e-005 7.06827e-005 -1.3243e-006 -4.47266e-016 0 -0 -9.93923e-017 1.98785e-016 3.18055e-015 1.98785e-016 -1.98785e-016 -0 -4.47266e-016 0 -0 -0.0128315 0.00232793 8.66734e-005 -2.98177e-016 0 1.59028e-015 -4.47266e-016 0 -0 -0.0159392 0.00297559 0.000852281 4.96962e-016 0 -1.59028e-015 -4.47266e-016 0 -0 -0.0126558 0.00314017 0.00284426 5.96354e-016 -3.97569e-016 -3.18055e-015 -4.47266e-016 0 -0 -9.93923e-017 1.98785e-016 3.18055e-015 1.98785e-016 -1.98785e-016 -0 -0.863946 0.16582 7.03859 -88.0329 10.2057 -10.5567 0.00155925 -0.00248931 -0.00078778 7.19784e-005 4.005e-005 1.11404e-005 9.93923e-017 1.19271e-015 -0 4.96962e-016 1.19271e-015 -0 1.98785e-016 1.19271e-015 -0 9.93923e-017 1.19271e-015 -0 0.0129268 0.00231327 -8.58376e-005 -1.98785e-016 0 -0 9.93923e-017 1.19271e-015 -0 0.0164343 0.00305326 -0.000878919 -9.93923e-017 0 1.59028e-015 9.93923e-017 1.19271e-015 -0 0.0144575 0.0036505 -0.00323407 -3.31043e-032 -1.19271e-015 -1.59028e-015 9.93923e-017 1.19271e-015 -0 4.96962e-016 1.19271e-015 -0 1.98785e-016 1.19271e-015 -0 3.42485 1.36937 -0.0640303 0.000136572 0.69354 0.00145564 -3.42573 -2.06297 -0.0607933 -3.19502e-024 0 -1.48106e-024 -3.42498 1.36123 0.0639712 -6.769e-005 0.712612 -0.0012277 3.42582 -2.07388 0.0612819 2.55305e-023 0 -2.31416e-026 
23.1116 45.1191 8.21338 -55.7727 37.952 -112.704 0.00325368 -1.47673 -0.0664806 0.00489946 -2.95349 -0.132886 0.00487469 -2.95348 -0.132881 -0.0206826 10.3609 -0.024978 0.000402286 0.125668 -0.180077 -5.79649 0.00128858 -12.2394 50.6195 13.7709 -22.5596 -1.50094 -13.4518 -27.1499 -5.14741 0.974076 -0.160037 -1.92329e-005 6.50446e-006 6.52905e-007 8.53526e-006 -2.6912e-006 7.2725e-007 -8.35619e-006 1.73681e-006 8.76547e-007 -1.92329e-005 6.50446e-006 6.52905e-007 -0.0128575 0.00233086 8.42576e-005 7.15625e-015 -3.18055e-015 -3.18055e-015 -1.92329e-005 6.50446e-006 6.52905e-007 -0.0160009 0.00298648 0.000858333 -3.48343e-006 -2.3481e-007 -1.53399e-006 -1.92329e-005 6.50446e-006 6.52905e-007 -0.0125045 0.00310124 0.00281147 -2.38542e-015 -4.4397e-007 -3.18055e-015 -1.92329e-005 6.50446e-006 6.52905e-007 8.53526e-006 -2.6912e-006 7.2725e-007 -8.35619e-006 1.73681e-006 8.76547e-007 4.91985 0.1736 6.76946 -51.926 10.0527 26.2081 0.967985 -14.0413 26.8147 5.14021 0.966178 0.291267 3.18055e-015 2.78299e-015 1.2921e-015 3.18055e-015 7.95139e-016 1.49089e-015 3.18055e-015 1.59028e-015 -5.36719e-015 3.18055e-015 2.78299e-015 1.2921e-015 0.013 0.00232897 -8.2285e-005 3.44836e-032 -1.98785e-015 9.93923e-016 3.18055e-015 2.78299e-015 1.2921e-015 0.0163319 0.00303553 -0.000876765 3.18055e-015 1.19271e-015 -2.28602e-015 3.18055e-015 2.78299e-015 1.2921e-015 0.0144882 0.00366025 -0.00324029 1.23226e-006 7.55571e-006 2.02967e-006 3.18055e-015 2.78299e-015 1.2921e-015 3.18055e-015 7.95139e-016 1.49089e-015 3.18055e-015 1.59028e-015 -5.36719e-015 3.50497 -68.9274 -18.9278 3.31057 18.6584 29.7413 -16.0289 3.55921 -6.37254 -1.28301e-006 6.13249e-006 2.47716e-006 0.076471 -69.045 22.8406 -3.4505 18.3519 -29.7161 14.7412 3.32215 5.97487 -5.31416e-006 4.4498e-006 1.58317e-005 
44.4174 35.5803 13.7898 100.903 76.4371 79.394 0.00619693 -1.99926 -0.096248 0.00903966 -3.99855 -0.192454 0.00904333 -3.99852 -0.192452 0.0649896 15.0591 0.0890751 0.000827671 0.182069 -0.26089 -9.0554 -0.159534 -12.4064 34.7576 11.8622 -38.569 -2.15245 -19.3979 -39.3805 -7.2242 1.20323 0.0078163 1.59028e-015 -1.98785e-016 8.94531e-016 3.18055e-015 -1.98785e-016 7.95139e-016 1.67084e-006 -1.17098e-008 -5.19467e-008 1.59028e-015 -1.98785e-016 8.94531e-016 -0.012863 0.00231846 7.15063e-005 -1.59028e-015 -2.18663e-015 -1.22253e-014 1.59028e-015 -1.98785e-016 8.94531e-016 -0.0160519 0.00299004 0.000849951 -6.36111e-015 0 7.95139e-016 1.59028e-015 -1.98785e-016 8.94531e-016 -0.0125562 0.00310851 0.00282825 1.59028e-015 -1.98785e-016 1.88845e-015 1.59028e-015 -1.98785e-016 8.94531e-016 3.18055e-015 -1.98785e-016 7.95139e-016 1.67084e-006 -1.17098e-008 -5.19467e-008 8.21858 -0.00194985 6.95369 -36.3653 8.74089 43.2963 1.45899 -20.3172 38.8487 7.21429 1.19644 0.173084 3.18055e-015 6.36111e-015 7.95139e-016 2.96853e-006 -4.69273e-007 1.36262e-006 -3.18055e-015 -3.18055e-015 7.95139e-016 3.18055e-015 6.36111e-015 7.95139e-016 0.0129046 0.00231596 -9.49176e-005 4.77083e-015 0 -2.38542e-015 3.18055e-015 6.36111e-015 7.95139e-016 0.0163385 0.00303637 -0.000881381 3.18055e-015 -3.18055e-015 7.95139e-016 3.18055e-015 6.36111e-015 7.95139e-016 0.014579 0.00365902 -0.00325637 1.59028e-015 6.36111e-015 7.95139e-016 3.18055e-015 6.36111e-015 7.95139e-016 2.96853e-006 -4.69273e-007 1.36262e-006 -3.18055e-015 -3.18055e-015 7.95139e-016 -111.225 -72.7086 -139.31 -1.05914 24.732 44.8934 -21.4993 5.25432 -9.29548 3.1349e-006 1.03087e-006 -6.96367e-007 108.43 -70.9621 136.369 0.761226 24.2428 -44.804 19.6384 5.01203 8.71446 4.17046e-006 1.78289e-008 2.1583e-006 
39.8259 37.8759 11.8025 -0.101411 86.6159 -179.898 0.00458429 -1.5675 -0.0897143 0.00671592 -3.13494 -0.179403 0.00671596 -3.13494 -0.179403 0.256785 14.0944 0.342029 0.000715818 0.169166 -0.242439 -9.78199 -0.480324 -13.0043 39.7066 12.515 -35.1356 -1.89566 -17.4648 -36.6126 -6.22995 0.682213 0.442805 3.18055e-015 -9.54166e-015 -1.59028e-015 1.59028e-015 -3.18055e-015 -4.37326e-015 3.18055e-015 -3.18055e-015 -1.19271e-015 3.18055e-015 -9.54166e-015 -1.59028e-015 -0.0127663 0.00229201 7.19504e-005 -3.93839e-006 1.71843e-005 2.838e-006 3.18055e-015 -9.54166e-015 -1.59028e-015 -0.0160983 0.00300441 0.000858699 -1.32417e-031 -3.18055e-015 -2.38542e-015 3.18055e-015 -9.54166e-015 -1.59028e-015 -0.0125336 0.00310374 0.00281058 -1.59028e-015 6.36111e-015 -1.98785e-015 3.18055e-015 -9.54166e-015 -1.59028e-015 1.59028e-015 -3.18055e-015 -4.37326e-015 3.18055e-015 -3.18055e-015 -1.19271e-015 9.03672 -0.358233 7.5935 -41.3831 9.14856 39.5739 1.27236 -18.3171 36.1503 6.2231 0.677042 -0.294169 -1.59028e-015 -3.18055e-015 -7.95139e-016 3.18055e-015 -3.18055e-015 7.95139e-016 -0 -6.36111e-015 -0 -1.59028e-015 -3.18055e-015 -7.95139e-016 0.0129839 0.00231718 -9.24606e-005 -0 0 3.97569e-016 -1.59028e-015 -3.18055e-015 -7.95139e-016 0.0163051 0.0030242 -0.000875444 -2.64834e-031 -1.27222e-014 -1.19271e-015 -1.59028e-015 -3.18055e-015 -7.95139e-016 0.0145746 0.0036658 -0.00326522 1.59028e-015 -3.18055e-015 -1.98785e-015 -1.59028e-015 -3.18055e-015 -7.95139e-016 3.18055e-015 -3.18055e-015 7.95139e-016 -0 -6.36111e-015 -0 -91.7666 -78.2295 -118.848 0.203062 23.9694 41.4202 -20.2829 4.67324 -8.59034 -6.62613e-007 1.63755e-006 1.53962e-006 91.2634 -76.5031 118.274 -0.445153 23.5524 -41.3496 18.5865 4.61403 8.10077 -2.669e-006 2.14999e-006 -5.8965e-007 
